<?xml version="1.0" encoding="UTF-8" standalone="no"?>
<!-- Created with Inkscape (http://www.inkscape.org/) -->

<svg
   width="60px"
   height="37px"
   viewBox="0 0 169.30862 103.93006"
   version="1.1"
   id="svg1"
   xmlns:inkscape="http://www.inkscape.org/namespaces/inkscape"
   xmlns:sodipodi="http://sodipodi.sourceforge.net/DTD/sodipodi-0.dtd"
   xmlns="http://www.w3.org/2000/svg"
   xmlns:svg="http://www.w3.org/2000/svg">
  <sodipodi:namedview
     id="namedview1"
     pagecolor="#505050"
     bordercolor="#eeeeee"
     borderopacity="1"
     inkscape:showpageshadow="0"
     inkscape:pageopacity="0"
     inkscape:pagecheckerboard="0"
     inkscape:deskcolor="#d1d1d1"
     inkscape:document-units="mm"
     inkscape:export-bgcolor="#ffffff00"
     inkscape:zoom="1.4592172"
     inkscape:cx="425.228"
     inkscape:cy="559.5466"
     inkscape:window-width="1920"
     inkscape:window-height="1043"
     inkscape:window-x="0"
     inkscape:window-y="0"
     inkscape:window-maximized="1"
     inkscape:current-layer="layer1" />
  <defs
     id="defs1">
    <clipPath
       clipPathUnits="userSpaceOnUse"
       id="clipPath2">
      <path
         d="M 0,2960 H 1440 V 0 H 0 Z"
         transform="translate(-714.70752,-1302.4151)"
         id="path2" />
    </clipPath>
    <clipPath
       clipPathUnits="userSpaceOnUse"
       id="clipPath6">
      <path
         d="M 0,2960 H 1440 V 0 H 0 Z"
         transform="translate(-753.52442,-1421.8379)"
         id="path6" />
    </clipPath>
    <clipPath
       clipPathUnits="userSpaceOnUse"
       id="clipPath10">
      <path
         d="M 0,2960 H 1440 V 0 H 0 Z"
         transform="translate(-633.20561,-1543.109)"
         id="path10" />
    </clipPath>
    <clipPath
       clipPathUnits="userSpaceOnUse"
       id="clipPath12">
      <path
         d="M 0,2960 H 1440 V 0 H 0 Z"
         transform="translate(-937.60555,-1503.3057)"
         id="path12" />
    </clipPath>
    <clipPath
       clipPathUnits="userSpaceOnUse"
       id="clipPath14">
      <path
         d="M 0,2960 H 1440 V 0 H 0 Z"
         transform="translate(-726.48342,-1349.0918)"
         id="path14" />
    </clipPath>
    <clipPath
       clipPathUnits="userSpaceOnUse"
       id="clipPath16">
      <path
         d="M 0,2960 H 1440 V 0 H 0 Z"
         transform="translate(-730.09082,-1393.5812)"
         id="path16" />
    </clipPath>
    <clipPath
       clipPathUnits="userSpaceOnUse"
       id="clipPath18">
      <path
         d="M 0,2960 H 1440 V 0 H 0 Z"
         transform="translate(-779.88482,-1347.2315)"
         id="path18" />
    </clipPath>
    <clipPath
       clipPathUnits="userSpaceOnUse"
       id="clipPath20">
      <path
         d="M 0,2960 H 1440 V 0 H 0 Z"
         transform="translate(-739.30862,-1326.668)"
         id="path20" />
    </clipPath>
    <clipPath
       clipPathUnits="userSpaceOnUse"
       id="clipPath26">
      <path
         d="M 0,2960 H 1440 V 0 H 0 Z"
         transform="translate(-632.31352,-1542.0269)"
         id="path26" />
    </clipPath>
    <clipPath
       clipPathUnits="userSpaceOnUse"
       id="clipPath28">
      <path
         d="M 0,2960 H 1440 V 0 H 0 Z"
         transform="translate(-937.98445,-1503.7041)"
         id="path28" />
    </clipPath>
    <clipPath
       clipPathUnits="userSpaceOnUse"
       id="clipPath30">
      <path
         d="M 0,2960 H 1440 V 0 H 0 Z"
         transform="translate(-891.75595,-1555.9023)"
         id="path30" />
    </clipPath>
  </defs>
  <g
     inkscape:label="crow"
     inkscape:groupmode="layer"
     id="layer1"
     transform="translate(-20.372916,-96.57291)">
    <path
       id="outer-black"
       d="m 0,0 c -0.686,1.399 -1.196,2.922 -2.083,4.179 -9.205,13.042 -18.473,26.038 -27.714,39.053 -0.754,1.062 -1.44,2.172 -2.307,3.487 7.023,5.784 13.918,11.463 20.98,17.279 -5.424,12.492 -10.757,24.791 -16.107,37.084 -2.185,5.019 -4.507,9.981 -6.568,15.05 -0.98,2.409 -2.315,3.522 -5.043,3.888 -16.948,2.268 -33.873,4.71 -50.776,7.293 -2.138,0.327 -4.443,1.41 -6.088,2.821 -16.518,14.175 -32.938,28.463 -49.305,42.811 -1.554,1.363 -2.847,3.212 -3.759,5.081 -2.545,5.215 -4.969,10.5 -7.176,15.867 -3.308,8.048 -7.713,15.216 -13.592,21.785 -14.068,15.721 -27.589,31.932 -41.336,47.941 -0.841,0.98 -1.728,1.922 -3.12,3.464 1.641,-0.302 2.794,-0.426 3.896,-0.732 20.291,-5.63 40.574,-11.287 60.865,-16.915 1.273,-0.353 2.597,-0.522 3.897,-0.776 0.743,-0.25 0.794,0.489 1.145,0.8 -4.062,7.979 -8.125,15.958 -12.761,25.063 18.363,-6.563 35.819,-12.8 53.274,-19.038 0.23,0.311 0.461,0.623 0.691,0.935 -2.056,4.023 -4.113,8.045 -6.726,13.159 2.567,-0.801 4.25,-1.135 5.768,-1.828 16.009,-7.304 31.947,-14.767 48.022,-21.924 3.07,-1.367 6.646,-2.224 9.995,-2.244 28.988,-0.172 57.976,-0.168 86.964,0 3.169,0.019 6.636,0.811 9.448,2.252 30.155,15.458 60.222,31.091 90.266,46.765 3.372,1.759 6.591,2.248 10.447,1.9 12.4,-1.116 24.847,-1.762 37.287,-2.369 2.782,-0.135 4.599,-1.079 6.234,-3.265 6.374,-8.523 12.803,-17.011 19.421,-25.344 1.329,-1.673 3.403,-3.141 5.43,-3.811 13.402,-4.429 26.889,-8.607 40.339,-12.893 1.89,-0.602 3.735,-1.35 6.028,-2.187 -11.444,-7.15 -22.54,-14.082 -33.793,-21.111 4.656,-15.964 9.241,-31.687 14.077,-48.272 -3.397,1.441 -6.057,2.527 -8.682,3.69 -12.902,5.716 -25.83,11.373 -38.659,17.248 -2.601,1.192 -4.783,1.403 -7.449,0.344 -7.567,-3.005 -15.274,-5.66 -22.827,-8.699 -2.235,-0.9 -4.353,-2.382 -6.158,-4.005 -5.935,-5.339 -11.511,-11.091 -17.595,-16.247 -4.696,-3.98 -5.865,-9.517 -7.612,-14.785 -1.119,-3.373 -2.845,-5.573 -5.975,-7.367 -12.545,-7.189 -25.108,-14.382 -37.275,-22.181 -7.905,-5.065 -16.31,-7.923 -25.455,-9.275 -5.073,-0.751 -10.08,-1.944 -14.578,-2.83 0,-9.434 -0.004,-18.52 0.004,-27.606 0.002,-0.997 0.273,-2.032 0.09,-2.986 C 52.678,73.396 55.98,68.906 61.618,64.815 69.802,58.876 77.401,52.128 85.668,45.383 69.657,30.703 53.906,16.262 37.717,1.419 36.956,3.819 36.379,5.634 35.542,8.272 32.496,5.322 29.748,2.661 27,0 H 23 C 19.937,2.045 18.788,5.869 15.608,8.15 12.228,5.866 10.127,2.366 7,0 Z"
       style="display:inline;fill:#202020;fill-opacity:1;fill-rule:nonzero;stroke:none"
       transform="matrix(0.35277776,0,0,-0.35277776,95.86524,200.50297)"
       clip-path="url(#clipPath2)"
       inkscape:label="outer-black" />
    <path
       id="inner-white"
       d="m 0,0 c 2.438,-19.823 4.783,-38.887 7.196,-58.495 6.362,2.919 10.516,0.272 14.453,-3.86 3.776,-3.963 7.95,-7.546 12.378,-11.7 -9.734,-9.291 -19.387,-18.504 -29.772,-28.416 -0.565,4.436 -1.008,7.92 -1.563,12.279 -6.182,-6.152 -12.005,-11.945 -18.136,-18.045 -2.108,6.107 -4.032,11.679 -6.254,18.122 -5.276,-7.225 -10.034,-13.741 -15.341,-21.007 -7.046,13.08 -16.853,23.863 -21.252,38.244 6.189,4.919 12.273,9.755 18.546,14.74 -9.122,21.855 -18.187,43.574 -27.233,65.245 -18.767,3.17 -37.296,6.235 -55.788,9.509 -2.306,0.408 -4.765,1.506 -6.561,2.998 -16.242,13.49 -32.388,27.098 -48.449,40.804 -1.656,1.413 -3.019,3.532 -3.756,5.595 -3.129,8.757 -6.102,17.576 -8.847,26.46 -1.032,3.337 -2.809,5.815 -5.387,8.082 -8.613,7.575 -17.082,15.314 -25.59,23.007 -0.596,0.538 -1.066,1.215 -1.68,1.926 0.879,1.719 1.696,3.318 2.79,5.459 16.234,-4.561 32.461,-9.121 49.663,-13.954 -0.982,2.993 -1.473,5.357 -2.507,7.452 -1.73,3.504 -1.626,6.552 1.115,9.473 1.01,1.077 1.768,2.39 2.997,4.087 12.077,-4.598 24.228,-9.224 37.022,-14.094 v 10.047 c 9.601,-4.469 18.762,-8.352 27.554,-12.941 7.557,-3.946 15.198,-5.669 23.796,-5.559 29.489,0.379 58.986,0.105 88.48,0.224 2.349,0.009 4.925,0.684 7.003,1.787 23.337,12.39 46.521,25.068 69.916,37.346 8.657,4.543 17.716,8.337 26.697,12.229 1.685,0.73 3.918,0.627 5.82,0.355 9.872,-1.408 19.704,-3.104 29.584,-4.45 2.745,-0.374 4.473,-1.599 6.053,-3.717 5.669,-7.599 11.57,-15.026 17.165,-22.678 2.097,-2.867 4.628,-4.364 8.026,-5.25 9.321,-2.432 18.552,-5.209 27.813,-7.868 0.607,-0.174 1.169,-0.505 2.432,-1.065 -9.06,-5.787 -17.637,-11.266 -26.526,-16.944 4.255,-10.429 8.428,-20.655 12.641,-30.981 -5.318,-1.912 -9.695,-1.571 -14.286,1.459 -6.787,4.479 -14.075,8.194 -21.054,12.396 -2.08,1.252 -3.761,1.336 -5.987,0.315 -8.904,-4.083 -17.931,-7.899 -26.856,-11.939 -1.932,-0.875 -3.775,-2.093 -5.411,-3.452 C 115.407,68.653 110.201,63.713 104.543,59.356 98.88,54.995 94.408,49.799 91.528,43.325 88.735,37.044 84.514,32.218 78.597,28.709 75.313,26.762 72.106,24.601 69.169,22.168 58.484,13.324 46.17,7.645 33.082,3.591 29.198,2.388 24.957,2.262 20.858,1.846 14.096,1.159 7.315,0.638 0,0"
       style="display:inline;fill:#f8f7f7;fill-opacity:1;fill-rule:nonzero;stroke:none"
       transform="matrix(0.35277776,0,0,-0.35277776,109.55898,158.37323)"
       clip-path="url(#clipPath6)"
       inkscape:label="inner-white" />
    <path
       id="inner-black"
       d="m 0,0 c 6.726,-3.628 13.373,-7.414 20.219,-10.799 2.406,-1.19 5.295,-1.962 7.968,-1.972 34.822,-0.128 69.646,-0.13 104.469,0.004 2.667,0.01 5.628,0.749 7.947,2.051 24.2,13.581 48.172,27.574 72.499,40.92 7.062,3.873 15.042,6.085 22.648,8.934 1.001,0.375 2.328,0.201 3.426,-0.052 6.478,-1.489 12.937,-3.066 19.394,-4.645 0.956,-0.233 2.042,-0.415 2.777,-0.991 8.069,-6.322 17.332,-11.295 23.217,-20.521 -6.094,-6.057 -12.256,-12.182 -18.372,-18.262 3.632,-6.623 6.891,-12.567 10.349,-18.871 -11.005,-4.195 -21.855,-8.152 -32.544,-12.504 -3.598,-1.465 -7.059,-3.59 -10.106,-6.012 -5.852,-4.651 -11.412,-9.677 -16.984,-14.668 -1.445,-1.294 -2.632,-2.942 -3.691,-4.587 -3.739,-5.814 -7.372,-11.696 -11.974,-17.36 v 11.643 c -1.555,-1.681 -2.324,-2.407 -2.971,-3.228 -5.356,-6.796 -10.955,-13.423 -15.943,-20.48 -3.6,-5.092 -8.028,-8.704 -13.756,-10.894 -0.311,-0.119 -0.639,-0.219 -0.912,-0.399 -14.984,-9.839 -32.326,-10.007 -49.219,-12.01 -1.959,-0.232 -3.92,-0.447 -6.482,-0.738 2.612,-21.162 5.182,-41.984 7.751,-62.807 -0.355,-0.107 -0.711,-0.213 -1.067,-0.321 -9.182,20.863 -18.363,41.727 -27.546,62.589 -0.287,-0.03 -0.575,-0.061 -0.862,-0.091 l -2.464,-60.882 c -0.288,-0.053 -0.575,-0.107 -0.863,-0.161 -1.771,4.499 -3.564,8.99 -5.311,13.5 -6.418,16.57 -12.93,33.104 -19.133,49.753 -1.151,3.09 -2.775,4.439 -5.858,4.997 -20.272,3.676 -40.53,7.429 -60.766,11.295 -1.991,0.381 -4.136,1.32 -5.647,2.643 -14.633,12.816 -29.153,25.761 -43.677,38.703 -0.977,0.869 -2.161,1.87 -2.503,3.03 -2.329,7.896 -4.458,15.851 -6.834,24.444 8.768,-2.942 16.801,-5.638 24.834,-8.334 0.192,0.393 0.383,0.786 0.575,1.179 -15.298,10.806 -30.595,21.612 -45.893,32.418 0.255,0.488 0.511,0.977 0.766,1.465 20.497,-6.72 40.995,-13.44 61.491,-20.16 0.199,0.336 0.398,0.671 0.597,1.007 -6.353,7.648 -12.706,15.296 -19.058,22.944 0.266,0.421 0.533,0.842 0.8,1.262 C -23.622,-1.624 -8.534,-6.281 7.698,-11.29 4.299,-7.25 1.704,-4.166 -0.892,-1.082 -0.746,-0.597 -0.457,-0.229 0,0"
       style="fill:#1b1b1b;fill-opacity:1;fill-rule:nonzero;stroke:none"
       transform="matrix(0.35277776,0,0,-0.35277776,67.113181,115.59151)"
       clip-path="url(#clipPath10)"
       inkscape:label="inner-black" />
    <path
       id="beak-orange"
       d="m 0,0 c -7.886,4.909 -15.791,9.787 -23.632,14.767 -0.905,0.575 -1.691,1.614 -2.123,2.615 -2.162,5.009 -4.188,10.077 -6.451,15.585 4.184,4.081 8.262,8.23 12.57,12.124 0.902,0.815 2.795,1.224 3.991,0.91 C -6.509,43.602 2.567,40.977 11.853,37.56 3.989,34.108 -3.875,30.657 -12.058,27.066 -7.835,18.011 -3.728,9.205 0.379,0.398 0.253,0.266 0.127,0.133 0,0"
       style="fill:#fe6905;fill-opacity:1;fill-rule:nonzero;stroke:none"
       transform="matrix(0.35277776,0,0,-0.35277776,174.49871,129.63321)"
       clip-path="url(#clipPath12)"
       inkscape:label="beak-orange" />
    <path
       id="claw1-orange"
       d="m 0,0 c -2.826,-8.367 -5.545,-16.414 -8.602,-25.466 -5.439,8.023 -10.312,15.209 -15.476,22.826 3.895,2.591 7.515,5.116 11.277,7.407 0.803,0.488 2.286,0.493 3.176,0.094 C -6.484,3.456 -3.464,1.778 0,0"
       style="fill:#fe6905;fill-opacity:1;fill-rule:nonzero;stroke:none"
       transform="matrix(0.35277776,0,0,-0.35277776,100.01952,184.03644)"
       clip-path="url(#clipPath14)"
       inkscape:label="claw1-orange" />
    <path
       id="space-black"
       d="M 0,0 C 5.05,-10.066 9.914,-19.762 15.003,-29.908 9.875,-32.754 4.886,-35.523 -0.158,-38.323 -2.338,-32.335 -2.285,-6.286 0,0"
       style="display:inline;fill:#202020;fill-opacity:1;fill-rule:nonzero;stroke:none"
       transform="matrix(0.35277776,0,0,-0.35277776,101.29213,168.34159)"
       clip-path="url(#clipPath16)"
       inkscape:label="space-black" />
    <path
       id="claw3-orange"
       d="m 0,0 c -5.999,-5.562 -12.162,-11.273 -19.104,-17.707 -0.568,6.263 -1.108,11.578 -1.477,16.905 -0.063,0.891 0.403,2.013 0.994,2.719 2.753,3.293 5.636,6.478 8.596,9.841 C -7.318,7.829 -3.86,4.13 0,0"
       style="fill:#fe6b09;fill-opacity:1;fill-rule:nonzero;stroke:none"
       transform="matrix(0.35277776,0,0,-0.35277776,118.85834,184.69274)"
       clip-path="url(#clipPath18)"
       inkscape:label="claw3-orange" />
    <path
       id="claw2-orange"
       d="m 0,0 c -2.001,8.007 -3.729,14.918 -5.448,21.801 7.091,5.984 8.447,5.851 19.485,-2.2 C 9.514,13.283 4.988,6.965 0,0"
       style="fill:#fe6b09;fill-opacity:1;fill-rule:nonzero;stroke:none"
       transform="matrix(0.35277776,0,0,-0.35277776,104.54396,191.94706)"
       clip-path="url(#clipPath20)"
       inkscape:label="claw2-orange" />
    <path
       id="feather-artifact-black"
       d="M 0,0 C -0.257,0.367 -0.515,0.733 -0.772,1.099 -0.218,1.094 0.337,1.088 0.892,1.082 0.595,0.722 0.297,0.361 0,0"
       style="fill:#1b1b1b;fill-opacity:1;fill-rule:nonzero;stroke:none"
       transform="matrix(0.35277776,0,0,-0.35277776,66.798469,115.97322)"
       clip-path="url(#clipPath26)"
       inkscape:label="feather-artifact-black" />
    <path
       id="beak-artifact-orange"
       d="M 0,0 0.217,-1.077 C 0.019,-0.851 -0.18,-0.625 -0.379,-0.398 -0.252,-0.266 -0.126,-0.133 0,0"
       style="fill:#fe6905;fill-opacity:1;fill-rule:nonzero;stroke:none"
       transform="matrix(0.35277776,0,0,-0.35277776,174.63238,129.49266)"
       clip-path="url(#clipPath28)"
       inkscape:label="beak-artifact-orange" />
    <path
       id="eye-white"
       d="m 0,0 c -5.501,-0.46 -10.587,-0.927 -15.681,-1.274 -0.933,-0.064 -2.016,0.149 -2.832,0.597 -4.905,2.693 -9.752,5.491 -14.384,8.774 4.462,-0.7 8.907,-1.604 13.396,-2.021 2.741,-0.255 5.632,-0.119 8.316,0.472 C -5.593,7.779 -2.137,5.659 0,0"
       style="display:inline;fill:#f8f7f7;fill-opacity:1;fill-rule:nonzero;stroke:none"
       transform="matrix(0.35277776,0,0,-0.35277776,158.32399,111.0783)"
       clip-path="url(#clipPath30)"
       inkscape:label="eye-white" />
  </g>
</svg>
